<svg width="76" height="76" viewBox="0 0 76 76" fill="none" xmlns="http://www.w3.org/2000/svg">
<circle cx="38" cy="38" r="38" fill="#E4E4E4"/>
<path d="M42.6875 45.0312C42.2563 45.0312 41.9062 45.3813 41.9062 45.8125C41.9062 46.2437 42.2563 46.5938 42.6875 46.5938C43.1187 46.5938 43.4688 46.2437 43.4688 45.8125C43.4688 45.3813 43.1187 45.0312 42.6875 45.0312Z" fill="black"/>
<path d="M46 41.75C43.4375 41.75 42.2054 43 38 43C33.7946 43 32.5714 41.75 30 41.75C23.375 41.75 18 46.4531 18 52.25V54.25C18 56.3203 19.9196 58 22.2857 58H53.7143C56.0804 58 58 56.3203 58 54.25V52.25C58 46.4531 52.625 41.75 46 41.75ZM53.7143 54.25H22.2857V52.25C22.2857 48.5312 25.75 45.5 30 45.5C31.3036 45.5 33.4196 46.75 38 46.75C42.6161 46.75 44.6875 45.5 46 45.5C50.25 45.5 53.7143 48.5312 53.7143 52.25V54.25ZM38 40.5C45.0982 40.5 50.8571 35.4609 50.8571 29.25C50.8571 23.0391 45.0982 18 38 18C30.9018 18 25.1429 23.0391 25.1429 29.25C25.1429 35.4609 30.9018 40.5 38 40.5ZM38 21.75C42.7232 21.75 46.5714 25.1172 46.5714 29.25C46.5714 33.3828 42.7232 36.75 38 36.75C33.2768 36.75 29.4286 33.3828 29.4286 29.25C29.4286 25.1172 33.2768 21.75 38 21.75Z" fill="black" fill-opacity="0.65"/>
<path d="M39.5625 45.0312H34.875C34.4435 45.0312 34.0938 45.381 34.0938 45.8125C34.0938 46.244 34.4435 46.5938 34.875 46.5938H39.5625C39.994 46.5938 40.3438 46.244 40.3438 45.8125C40.3438 45.381 39.994 45.0312 39.5625 45.0312Z" fill="black"/>
</svg>
